<svg xmlns="http://www.w3.org/2000/svg" width="116.924" height="24.079"><path d="M3.684 0H0v18.866l8.1-8.439z" fill="#4391c3"/><path d="M3.684 0l9.738 10.875L24.116 0z" fill="#51b1ff"/><path d="M3.684 0l4.417 10.427 2.545-2.652z" fill="#3079a0"/><path d="M20.437 24.082h3.684V5.216l-8.1 8.439z" fill="#4d9033"/><path d="M20.437 24.082l-9.786-10.875L0 24.082z" fill="#7eb928"/><path d="M20.437 24.082L16.02 13.655l-2.563 2.67z" fill="#417830"/><path d="M43.743 5.482l-9.517 9.822V5.482h-1.419v13.49l5.533-5.834 5.4 5.51h1.857l-6.236-6.59 6.237-6.577zm14.512 11.777h-7.344v-4.516h5.726v-1.361h-5.722V6.847h7.344V5.482h-8.687v13.16h8.687zm34.237 1.372h1.474l1.489-3.192h6.4l1.412 3.192h1.449L98.779 5.112zm6.236-10.255l2.534 5.732h-5.187zm16.009-2.394a4.682 4.682 0 00-2.166-.514h-4.764l.021 13.159h1.342v-5.508h3.4a4.676 4.676 0 002.166-.514 4.186 4.186 0 001.59-1.4 3.391 3.391 0 000-3.843 4.222 4.222 0 00-1.589-1.38zm.843 3.311a2.015 2.015 0 01-.395 1.2 2.873 2.873 0 01-1.1.9 3.439 3.439 0 01-1.519.338h-3.4l-.017-4.906h3.419a3.447 3.447 0 011.519.337 2.873 2.873 0 011.094.9 2.039 2.039 0 01.399 1.226zm-33.062 4.554l.158-.15 5.138-5.142v10.062h1.48V5.476l-.007-.363-2.057 2.056-4.707 4.593-6.684-6.614v13.469h1.48V8.782l4.861 4.739m-18.414-.475h1.684l4.581 5.564h1.771l-4.587-5.563c.263-.011.518-.031.76-.06a4.257 4.257 0 001.242-.357 3.969 3.969 0 001.615-1.292 3.365 3.365 0 00.366-3.482 3.8 3.8 0 00-.923-1.224 4.352 4.352 0 00-1.44-.855 5.149 5.149 0 00-1.754-.3h-4.655v13.129h1.34zm0-6.225h3.315a3.575 3.575 0 011.648.365 2.808 2.808 0 011.082.926 2.072 2.072 0 01.371 1.167 1.991 1.991 0 01-.439 1.251 2.9 2.9 0 01-1.055.873 5.877 5.877 0 01-2.109.348h-2.813z" fill="#fff"/></svg>